# xmcd
#
# Track frame offsets:
#	150
#	12587
#	26344
#	38320
#	52451
#	66119
#	74402
#	84434
#	98917
#	113015
#	126066
#	140884
#	153979
#	173840
#	189894
#	206831
#	223095
#	244878
#
# Disc length: 3646 seconds
#
# Revision: 2
# Processed by: cddbd v1.5.2PL0 Copyright (c) Steve Scherf et al.
# Submitted via: EasyCDDAExtractor 6.5.0.1
#
DISCID=030e3c12
DTITLE=Billie Holiday - Billie' Blues - Basics #4
DYEAR=0
DGENRE=Blues
TTITLE0=Your Mothers Son in Law
TTITLE1=Miss Brown to You
TTITLE2=Billies Blues
TTITLE3=Mean to Me
TTITLE4=Easy Living
TTITLE5=Swing Brother Swing
TTITLE6=Travlin all Alone
TTITLE7=Any Old Time
TTITLE8=Strange Fruit
TTITLE9=Laughing at Life
TTITLE10=Lover Man
TTITLE11=That Ole Devil Called Love
TTITLE12=Come Rain or Come Shine
TTITLE13=A Fine Romance
TTITLE14=Lady Sings The Blues
TTITLE15=Cheek to Cheek
TTITLE16=Sophisticated Lady
TTITLE17=Fine And Mellow
EXTD=
EXTT0=
EXTT1=
EXTT2=
EXTT3=
EXTT4=
EXTT5=
EXTT6=
EXTT7=
EXTT8=
EXTT9=
EXTT10=
EXTT11=
EXTT12=
EXTT13=
EXTT14=
EXTT15=
EXTT16=
EXTT17=
PLAYORDER=
